<svg width="20" height="20" viewBox="0 0 20 20" fill="none" xmlns="http://www.w3.org/2000/svg">
<path d="M4.58329 5.83317C4.25177 5.83317 3.93383 5.70147 3.69941 5.46705C3.46499 5.23263 3.33329 4.91469 3.33329 4.58317C3.33329 4.25165 3.46499 3.93371 3.69941 3.69929C3.93383 3.46487 4.25177 3.33317 4.58329 3.33317C4.91481 3.33317 5.23276 3.46487 5.46718 3.69929C5.7016 3.93371 5.83329 4.25165 5.83329 4.58317C5.83329 4.91469 5.7016 5.23263 5.46718 5.46705C5.23276 5.70147 4.91481 5.83317 4.58329 5.83317ZM17.8416 9.64984L10.3416 2.14984C10.0416 1.84984 9.62496 1.6665 9.16663 1.6665H3.33329C2.40829 1.6665 1.66663 2.40817 1.66663 3.33317V9.1665C1.66663 9.62484 1.84996 10.0415 2.15829 10.3415L9.64996 17.8415C9.95829 18.1415 10.375 18.3332 10.8333 18.3332C11.2916 18.3332 11.7083 18.1415 12.0083 17.8415L17.8416 12.0082C18.15 11.7082 18.3333 11.2915 18.3333 10.8332C18.3333 10.3665 18.1416 9.94984 17.8416 9.64984Z" fill="#404040"/>
</svg>
