<svg width="117" height="55" viewBox="0 0 117 55" fill="none" xmlns="http://www.w3.org/2000/svg">
<rect width="117" height="55" rx="27.5" fill="#FAFAFC" fill-opacity="0.66"/>
<rect x="10" y="5" width="45" height="45" rx="22.5" fill="white"/>
<path fill-rule="evenodd" clip-rule="evenodd" d="M35.625 34.7918C35.6251 35.3174 35.4266 35.8237 35.0692 36.2091C34.7119 36.5945 34.222 36.8305 33.6979 36.87L33.5416 36.8752H31.4583C30.9327 36.8753 30.4265 36.6768 30.0411 36.3194C29.6557 35.962 29.4196 35.4722 29.3802 34.9481L29.375 34.7918H35.625ZM32.5 17.0835C34.3906 17.0835 36.2073 17.8178 37.5669 19.1315C38.9265 20.4452 39.7226 22.2357 39.7875 24.1252L39.7916 24.3752V28.296L41.6895 32.0918C41.7724 32.2575 41.8138 32.4407 41.8104 32.6258C41.8069 32.811 41.7586 32.9925 41.6696 33.1549C41.5806 33.3173 41.4536 33.4557 41.2994 33.5583C41.1452 33.6609 40.9685 33.7246 40.7843 33.7439L40.6645 33.7502H24.3354C24.1501 33.7502 23.9676 33.7054 23.8035 33.6194C23.6394 33.5335 23.4986 33.4091 23.3931 33.2568C23.2876 33.1045 23.2206 32.9289 23.1979 32.7451C23.1751 32.5612 23.1973 32.3746 23.2625 32.2012L23.3104 32.0918L25.2083 28.296V24.3752C25.2083 22.4413 25.9765 20.5866 27.344 19.2192C28.7114 17.8517 30.5661 17.0835 32.5 17.0835ZM32.5 19.1668C31.1578 19.1669 29.8675 19.6851 28.8981 20.6134C27.9287 21.5416 27.3551 22.8082 27.2968 24.1491L27.2916 24.3752V28.296C27.2916 28.5543 27.2436 28.8104 27.15 29.0512L27.0718 29.2283L25.8531 31.6668H39.1479L37.9291 29.2272C37.8135 28.9963 37.7418 28.7459 37.7177 28.4887L37.7083 28.296V24.3752C37.7083 22.9938 37.1596 21.6691 36.1828 20.6923C35.2061 19.7156 33.8813 19.1668 32.5 19.1668Z" fill="black"/>
<path d="M88.2499 25.6248C88.2499 25.3761 88.3487 25.1377 88.5245 24.9619C88.7003 24.7861 88.9388 24.6873 89.1874 24.6873H94.8124C95.0611 24.6873 95.2995 24.7861 95.4753 24.9619C95.6511 25.1377 95.7499 25.3761 95.7499 25.6248C95.7499 25.8734 95.6511 26.1119 95.4753 26.2877C95.2995 26.4635 95.0611 26.5623 94.8124 26.5623H89.1874C88.9388 26.5623 88.7003 26.4635 88.5245 26.2877C88.3487 26.1119 88.2499 25.8734 88.2499 25.6248ZM89.1874 28.4373C88.9388 28.4373 88.7003 28.5361 88.5245 28.7119C88.3487 28.8877 88.2499 29.1261 88.2499 29.3748C88.2499 29.6234 88.3487 29.8619 88.5245 30.0377C88.7003 30.2135 88.9388 30.3123 89.1874 30.3123H92.9374C93.1861 30.3123 93.4245 30.2135 93.6003 30.0377C93.7761 29.8619 93.8749 29.6234 93.8749 29.3748C93.8749 29.1261 93.7761 28.8877 93.6003 28.7119C93.4245 28.5361 93.1861 28.4373 92.9374 28.4373H89.1874ZM80.7499 27.4998C80.7504 25.023 81.5682 22.6156 83.0765 20.651C84.5848 18.6865 86.6993 17.2745 89.0919 16.6343C91.4845 15.9941 94.0215 16.1613 96.3094 17.1101C98.5972 18.0588 100.508 19.7361 101.745 21.8816C102.983 24.0272 103.477 26.5211 103.153 28.9766C102.828 31.432 101.702 33.7116 99.9499 35.4619C98.1974 37.2121 95.9164 38.3352 93.4606 38.6567C91.0047 38.9783 88.5114 38.4805 86.3674 37.2404L81.9837 38.7029C81.8217 38.757 81.6481 38.7658 81.4815 38.7284C81.3149 38.691 81.1616 38.6088 81.0383 38.4907C80.915 38.3726 80.8263 38.2231 80.7817 38.0583C80.7372 37.8934 80.7385 37.7196 80.7855 37.5554L82.1205 32.8848C81.2187 31.2334 80.7473 29.3814 80.7499 27.4998ZM91.9999 18.1248C90.3446 18.1247 88.7188 18.5628 87.2878 19.3947C85.8567 20.2266 84.6714 21.4226 83.8524 22.861C83.0334 24.2995 82.6098 25.9292 82.6247 27.5844C82.6396 29.2396 83.0926 30.8613 83.9374 32.2848C84.0024 32.3947 84.0443 32.5168 84.0604 32.6435C84.0765 32.7703 84.0666 32.8989 84.0312 33.0217L83.0768 36.3592L86.1855 35.3242C86.3176 35.2801 86.4577 35.266 86.5959 35.2829C86.7341 35.2997 86.8667 35.3471 86.9843 35.4217C88.2129 36.1992 89.6056 36.6803 91.0522 36.827C92.4987 36.9736 93.9596 36.7818 95.3193 36.2666C96.679 35.7515 97.9002 34.9271 98.8864 33.8587C99.8727 32.7903 100.597 31.5072 101.002 30.1107C101.407 28.7143 101.481 27.2427 101.22 25.8125C100.958 24.3822 100.367 23.0324 99.494 21.8698C98.6208 20.7072 97.4892 19.7636 96.1885 19.1136C94.8879 18.4637 93.4539 18.1251 91.9999 18.1248Z" fill="black"/>
</svg>
