<svg width="45" height="45" viewBox="0 0 45 45" fill="none" xmlns="http://www.w3.org/2000/svg">
<path d="M30.9373 12.6562H36.6973C37.0457 12.6566 37.3815 12.7862 37.6398 13.0201C37.898 13.2539 38.0603 13.5752 38.0951 13.9219L38.9529 22.5H36.1236L35.4204 15.4688H30.9373V19.6875C30.9373 20.0605 30.7892 20.4181 30.5254 20.6819C30.2617 20.9456 29.904 21.0938 29.5311 21.0938C29.1581 21.0938 28.8004 20.9456 28.5367 20.6819C28.273 20.4181 28.1248 20.0605 28.1248 19.6875V15.4688H16.8748V19.6875C16.8748 20.0605 16.7267 20.4181 16.4629 20.6819C16.1992 20.9456 15.8415 21.0938 15.4686 21.0938C15.0956 21.0938 14.7379 20.9456 14.4742 20.6819C14.2105 20.4181 14.0623 20.0605 14.0623 19.6875V15.4688H9.57639L7.32639 37.9688H22.4998V40.7812H5.77107C5.57466 40.7811 5.38046 40.7397 5.201 40.6599C5.02153 40.5801 4.86078 40.4636 4.72909 40.3178C4.59741 40.1721 4.49771 40.0004 4.43642 39.8138C4.37513 39.6272 4.35362 39.4298 4.37326 39.2344L6.90451 13.9219C6.93935 13.5752 7.10161 13.2539 7.35986 13.0201C7.6181 12.7862 7.95395 12.6566 8.30232 12.6562H14.0623V11.6747C14.0623 6.79781 17.8198 2.8125 22.4998 2.8125C27.1798 2.8125 30.9373 6.79781 30.9373 11.6747V12.6591V12.6562ZM28.1248 12.6562V11.6747C28.1248 8.31656 25.5879 5.625 22.4998 5.625C19.4117 5.625 16.8748 8.31656 16.8748 11.6747V12.6591H28.1248V12.6562ZM36.9758 33.9188L33.7498 30.6956V40.7812C33.7498 41.1542 33.6017 41.5119 33.3379 41.7756C33.0742 42.0393 32.7165 42.1875 32.3436 42.1875C31.9706 42.1875 31.6129 42.0393 31.3492 41.7756C31.0855 41.5119 30.9373 41.1542 30.9373 40.7812V30.6956L27.7142 33.9188C27.5845 34.0531 27.4293 34.1602 27.2577 34.2339C27.0862 34.3076 26.9016 34.3464 26.7149 34.348C26.5282 34.3496 26.343 34.3141 26.1702 34.2433C25.9974 34.1726 25.8404 34.0682 25.7083 33.9362C25.5763 33.8041 25.4719 33.6471 25.4012 33.4743C25.3305 33.3015 25.2949 33.1163 25.2965 32.9296C25.2981 32.7429 25.3369 32.5583 25.4106 32.3868C25.4843 32.2152 25.5914 32.06 25.7258 31.9303L31.3508 26.3053C31.6145 26.0417 31.9721 25.8936 32.345 25.8936C32.7179 25.8936 33.0755 26.0417 33.3392 26.3053L38.9642 31.9303C39.0985 32.06 39.2056 32.2152 39.2793 32.3868C39.353 32.5583 39.3918 32.7429 39.3935 32.9296C39.3951 33.1163 39.3595 33.3015 39.2888 33.4743C39.2181 33.6471 39.1137 33.8041 38.9816 33.9362C38.8496 34.0682 38.6926 34.1726 38.5198 34.2433C38.3469 34.3141 38.1618 34.3496 37.975 34.348C37.7883 34.3464 37.6038 34.3076 37.4322 34.2339C37.2607 34.1602 37.1055 34.0531 36.9758 33.9188Z" fill="black"/>
</svg>
