<svg width="50" height="50" viewBox="0 0 50 50" fill="none" xmlns="http://www.w3.org/2000/svg">
<path d="M38.077 13.1687C37.8642 12.9557 37.6115 12.7869 37.3334 12.6716C37.0553 12.5564 36.7572 12.4971 36.4561 12.4971C36.1551 12.4971 35.857 12.5564 35.5789 12.6716C35.3008 12.7869 35.0481 12.9557 34.8353 13.1687L31.2499 16.7562L30.6082 16.1145C28.1749 13.6812 23.9082 13.6812 21.4749 16.1145L12.7832 24.8062C11.5666 26.0228 10.8957 27.6457 10.8957 29.3728C10.8957 31.0999 11.5666 32.7228 12.7832 33.9395L13.4249 34.5812L9.83739 38.1687C9.62454 38.3815 9.45569 38.6342 9.3405 38.9123C9.22531 39.1904 9.16602 39.4885 9.16602 39.7895C9.16602 40.0905 9.22531 40.3886 9.3405 40.6667C9.45569 40.9448 9.62454 41.1975 9.83739 41.4103C10.0502 41.6232 10.3029 41.792 10.581 41.9072C10.8591 42.0224 11.1572 42.0817 11.4582 42.0817C11.7592 42.0817 12.0573 42.0224 12.3354 41.9072C12.6135 41.792 12.8662 41.6232 13.0791 41.4103L16.6666 37.8228L17.3082 38.4645C18.5249 39.6812 20.1457 40.352 21.8749 40.352C23.6041 40.352 25.2249 39.6812 26.4416 38.4645L35.1332 29.7728C36.3499 28.5562 37.0207 26.9353 37.0207 25.2062C37.0207 23.477 36.3499 21.8562 35.1332 20.6395L34.4916 19.9978L38.0791 16.4103C38.2918 16.1974 38.4606 15.9446 38.5756 15.6664C38.6907 15.3882 38.7498 15.0901 38.7496 14.7891C38.7494 14.488 38.6899 14.19 38.5745 13.9119C38.4591 13.6339 38.29 13.3813 38.077 13.1687ZM31.8916 26.5312L23.1999 35.2228C22.8499 35.5728 22.3624 35.7499 21.8749 35.7499C21.3874 35.7499 20.8999 35.5749 20.5499 35.2228L19.9082 34.5812L21.4124 33.077C21.8423 32.6471 22.0838 32.0641 22.0838 31.4562C22.0838 30.8482 21.8423 30.2652 21.4124 29.8353C20.9825 29.4055 20.3995 29.164 19.7916 29.164C19.1836 29.164 18.6006 29.4055 18.1707 29.8353L16.6666 31.3395L16.0249 30.6978C15.6749 30.3478 15.4811 29.8749 15.4811 29.3728C15.4811 28.8707 15.6749 28.3978 16.0249 28.0478L24.7166 19.3562C25.0666 19.0062 25.5374 18.8124 26.0416 18.8124C26.5457 18.8124 27.0166 19.0062 27.3666 19.3562L28.0082 19.9978L26.5041 21.502C26.0742 21.9319 25.8327 22.5149 25.8327 23.1228C25.8327 23.7308 26.0742 24.3138 26.5041 24.7437C26.9339 25.1735 27.517 25.415 28.1249 25.415C28.7328 25.415 29.3158 25.1735 29.7457 24.7437L31.2499 23.2395L31.8916 23.8812C32.2416 24.2312 32.4353 24.7041 32.4353 25.2062C32.4353 25.7082 32.2416 26.1812 31.8916 26.5312Z" fill="black"/>
</svg>
