<svg width="40" height="40" viewBox="0 0 40 40" fill="none" xmlns="http://www.w3.org/2000/svg">
<path d="M37.5 5.82007L35.9 6.28882L7.265 15.0001H2.5V25.0001H7.26625L9.72625 25.7426L9.68875 25.8588V25.8988C8.88625 28.5388 10.3725 31.4738 13.1263 32.3038C13.1388 32.3076 13.1538 32.3001 13.1637 32.3038C15.8175 33.1101 18.755 31.6413 19.5712 28.8663L19.6087 28.7488L35.9 33.7113L37.5 34.1788V5.82007ZM35 9.18007V30.8201L7.85 22.5376L7.69625 22.5001H5V17.5001H7.695L7.85125 17.4626L35 9.18007ZM12.1088 26.4838L17.2262 28.0088L17.1888 28.1251V28.1626C16.7588 29.6251 15.2063 30.3401 13.8688 29.9213C12.4062 29.4926 11.6537 27.9788 12.0712 26.6401V26.6026L12.1088 26.4838Z" fill="black"/>
</svg>
