<svg width="200" height="200" viewBox="0 0 200 200" fill="none" xmlns="http://www.w3.org/2000/svg">
<circle cx="100" cy="100" r="100" fill="#F1F1F5"/>
<path d="M100 104.167C111.506 104.167 120.834 94.8393 120.834 83.3333C120.834 71.8274 111.506 62.5 100 62.5C88.4944 62.5 79.167 71.8274 79.167 83.3333C79.167 94.8393 88.4944 104.167 100 104.167Z" stroke="#213481" stroke-width="3.5" stroke-linecap="round" stroke-linejoin="round"/>
<path d="M133.334 137.5C133.334 128.66 129.822 120.181 123.571 113.93C117.319 107.679 108.841 104.167 100 104.167C91.1598 104.167 82.6813 107.679 76.4301 113.93C70.1789 120.181 66.667 128.66 66.667 137.5" stroke="#213481" stroke-width="3.5" stroke-linecap="round" stroke-linejoin="round"/>
<circle cx="164" cy="175" r="25" fill="#405AC6"/>
<path d="M166.084 168.333H161.917L159.834 170.833H157.334C156.892 170.833 156.468 171.009 156.155 171.321C155.843 171.634 155.667 172.058 155.667 172.5V180C155.667 180.442 155.843 180.866 156.155 181.178C156.468 181.491 156.892 181.667 157.334 181.667H170.667C171.109 181.667 171.533 181.491 171.846 181.178C172.158 180.866 172.334 180.442 172.334 180V172.5C172.334 172.058 172.158 171.634 171.846 171.321C171.533 171.009 171.109 170.833 170.667 170.833H168.167L166.084 168.333Z" stroke="white" stroke-width="1.04167" stroke-linecap="round" stroke-linejoin="round"/>
<path d="M164 178.333C165.381 178.333 166.5 177.214 166.5 175.833C166.5 174.453 165.381 173.333 164 173.333C162.619 173.333 161.5 174.453 161.5 175.833C161.5 177.214 162.619 178.333 164 178.333Z" stroke="white" stroke-width="1.04167" stroke-linecap="round" stroke-linejoin="round"/>
</svg>
