<svg width="40" height="40" viewBox="0 0 40 40" fill="none" xmlns="http://www.w3.org/2000/svg">
<path d="M20.9968 26.6667L15.6635 13.3333H12.3302L8.99683 21.6667V21.67L6.9985 26.6667H10.5885L11.2552 25H16.7385L17.4052 26.6667H20.9968ZM12.5868 21.6667L13.9985 18.1417L15.4068 21.6667H12.5868ZM28.3335 13.3333H31.6668V26.6667H26.6668C25.3407 26.6667 24.069 26.1399 23.1313 25.2022C22.1936 24.2645 21.6668 22.9927 21.6668 21.6667C21.6668 20.3406 22.1936 19.0688 23.1313 18.1311C24.069 17.1934 25.3407 16.6667 26.6668 16.6667H28.3335V13.3333ZM26.6668 20C26.2248 20 25.8009 20.1756 25.4883 20.4882C25.1758 20.8007 25.0002 21.2246 25.0002 21.6667C25.0002 22.1087 25.1758 22.5326 25.4883 22.8452C25.8009 23.1577 26.2248 23.3333 26.6668 23.3333H28.3335V20H26.6668ZM35.0002 5H5.00016C4.55814 5 4.13421 5.17559 3.82165 5.48816C3.50909 5.80072 3.3335 6.22464 3.3335 6.66667V33.3333C3.3335 33.7754 3.50909 34.1993 3.82165 34.5118C4.13421 34.8244 4.55814 35 5.00016 35H35.0002C35.4422 35 35.8661 34.8244 36.1787 34.5118C36.4912 34.1993 36.6668 33.7754 36.6668 33.3333V6.66667C36.6668 6.22464 36.4912 5.80072 36.1787 5.48816C35.8661 5.17559 35.4422 5 35.0002 5ZM6.66683 31.6667V8.33333H33.3335V31.6667H6.66683Z" fill="black"/>
</svg>
