<svg width="20" height="20" viewBox="0 0 20 20" fill="none" xmlns="http://www.w3.org/2000/svg">
<path d="M8.23332 8.2334C7.98769 8.46227 7.79069 8.73827 7.65405 9.04494C7.51741 9.3516 7.44393 9.68265 7.43801 10.0183C7.43209 10.354 7.49384 10.6874 7.61957 10.9987C7.74531 11.31 7.93246 11.5928 8.16986 11.8302C8.40725 12.0676 8.69003 12.2547 9.00132 12.3805C9.31262 12.5062 9.64605 12.568 9.98173 12.562C10.3174 12.5561 10.6484 12.4826 10.9551 12.346C11.2618 12.2094 11.5378 12.0124 11.7666 11.7667" stroke="#404040" stroke-width="2" stroke-linecap="round" stroke-linejoin="round"/>
<path d="M8.94165 4.23341C9.29274 4.18967 9.64618 4.16741 9.99998 4.16675C15.8333 4.16675 18.3333 10.0001 18.3333 10.0001C17.9607 10.7977 17.4935 11.5475 16.9417 12.2334" stroke="#404040" stroke-width="2" stroke-linecap="round" stroke-linejoin="round"/>
<path d="M5.50829 5.5083C3.851 6.63715 2.52485 8.18768 1.66663 9.99997C1.66663 9.99997 4.16663 15.8333 9.99996 15.8333C11.5966 15.8376 13.1589 15.3709 14.4916 14.4916" stroke="#404040" stroke-width="2" stroke-linecap="round" stroke-linejoin="round"/>
<path d="M1.66663 1.66675L18.3333 18.3334" stroke="#404040" stroke-width="2" stroke-linecap="round" stroke-linejoin="round"/>
</svg>
