<svg width="23" height="22" viewBox="0 0 23 22" fill="none" xmlns="http://www.w3.org/2000/svg">
<path d="M10.5269 0.706995C10.8332 -0.235689 12.1668 -0.235688 12.4731 0.706997L14.4864 6.90321C14.6234 7.32479 15.0162 7.61023 15.4595 7.61023H21.9746C22.9658 7.61023 23.3779 8.8786 22.576 9.46121L17.3052 13.2907C16.9466 13.5512 16.7965 14.0131 16.9335 14.4347L18.9468 20.6309C19.2531 21.5736 18.1741 22.3575 17.3722 21.7748L12.1014 17.9454C11.7428 17.6848 11.2572 17.6848 10.8986 17.9454L5.62776 21.7748C4.82586 22.3575 3.74692 21.5736 4.05322 20.6309L6.06649 14.4347C6.20347 14.0131 6.05341 13.5512 5.69479 13.2907L0.423976 9.46121C-0.377919 8.8786 0.0342015 7.61023 1.0254 7.61023H7.54049C7.98376 7.61023 8.37663 7.32479 8.51361 6.90321L10.5269 0.706995Z" fill="white"/>
</svg>
