<svg width="13" height="13" viewBox="0 0 13 13" fill="none" xmlns="http://www.w3.org/2000/svg">
<path d="M6.5 0C10.0899 0 13 2.91005 13 6.5C13 10.0899 10.0899 13 6.5 13C2.91005 13 0 10.0899 0 6.5C0 2.91005 2.91005 0 6.5 0ZM6.5 1.3C5.12087 1.3 3.79823 1.84786 2.82304 2.82304C1.84786 3.79823 1.3 5.12087 1.3 6.5C1.3 7.87913 1.84786 9.20177 2.82304 10.177C3.79823 11.1521 5.12087 11.7 6.5 11.7C7.87913 11.7 9.20177 11.1521 10.177 10.177C11.1521 9.20177 11.7 7.87913 11.7 6.5C11.7 5.12087 11.1521 3.79823 10.177 2.82304C9.20177 1.84786 7.87913 1.3 6.5 1.3ZM3.575 5.525C3.83359 5.525 4.08158 5.62772 4.26443 5.81057C4.44728 5.99342 4.55 6.24141 4.55 6.5C4.55 6.75859 4.44728 7.00658 4.26443 7.18943C4.08158 7.37228 3.83359 7.475 3.575 7.475C3.31641 7.475 3.06842 7.37228 2.88557 7.18943C2.70272 7.00658 2.6 6.75859 2.6 6.5C2.6 6.24141 2.70272 5.99342 2.88557 5.81057C3.06842 5.62772 3.31641 5.525 3.575 5.525ZM6.5 5.525C6.75859 5.525 7.00658 5.62772 7.18943 5.81057C7.37228 5.99342 7.475 6.24141 7.475 6.5C7.475 6.75859 7.37228 7.00658 7.18943 7.18943C7.00658 7.37228 6.75859 7.475 6.5 7.475C6.24141 7.475 5.99342 7.37228 5.81057 7.18943C5.62772 7.00658 5.525 6.75859 5.525 6.5C5.525 6.24141 5.62772 5.99342 5.81057 5.81057C5.99342 5.62772 6.24141 5.525 6.5 5.525ZM9.425 5.525C9.68359 5.525 9.93158 5.62772 10.1144 5.81057C10.2973 5.99342 10.4 6.24141 10.4 6.5C10.4 6.75859 10.2973 7.00658 10.1144 7.18943C9.93158 7.37228 9.68359 7.475 9.425 7.475C9.16641 7.475 8.91842 7.37228 8.73557 7.18943C8.55272 7.00658 8.45 6.75859 8.45 6.5C8.45 6.24141 8.55272 5.99342 8.73557 5.81057C8.91842 5.62772 9.16641 5.525 9.425 5.525Z" fill="#405AC6"/>
</svg>
