<svg width="40" height="40" viewBox="0 0 40 40" fill="none" xmlns="http://www.w3.org/2000/svg">
<path d="M25.6663 26.6667C25.1663 26.6667 24.6663 26.1667 24.6663 25.6667C24.6663 25.1667 25.1663 24.6667 25.6663 24.6667C26.1663 24.6667 26.6663 25.1667 26.6663 25.6667C26.6663 26.1667 26.1663 26.6667 25.6663 26.6667ZM36.333 29.6667L30.333 23.6667C29.9997 23.5001 29.6663 23.3334 29.333 23.3334H24.6663C23.9997 23.3334 23.333 24.0001 23.333 24.6667V29.3334C23.333 29.6667 23.4997 30.0001 23.6663 30.3334L29.6663 36.3334C29.833 36.5001 30.1663 36.6667 30.6663 36.6667C31.1663 36.6667 31.333 36.5001 31.6663 36.3334L36.333 31.6667C36.4997 31.5001 36.6663 31.1667 36.6663 30.6667C36.6663 30.3334 36.4997 30.0001 36.333 29.6667ZM16.6663 6.66675C12.9997 6.66675 9.99967 9.66675 9.99967 13.3334C9.99967 17.0001 12.9997 20.0001 16.6663 20.0001C20.333 20.0001 23.333 17.0001 23.333 13.3334C23.333 9.66675 20.333 6.66675 16.6663 6.66675ZM16.6663 10.0001C18.4997 10.0001 19.9997 11.5001 19.9997 13.3334C19.9997 15.1667 18.4997 16.6667 16.6663 16.6667C14.833 16.6667 13.333 15.1667 13.333 13.3334C13.333 11.5001 14.833 10.0001 16.6663 10.0001ZM16.6663 21.6667C12.1663 21.6667 3.33301 23.8334 3.33301 28.3334V33.3334H21.9997L21.333 32.6667C20.6663 32.0001 20.1663 31.1667 19.9997 30.1667H6.49967V28.3334C6.49967 27.3334 11.6663 24.8334 16.6663 24.8334C17.833 24.8334 18.9997 25.0001 19.9997 25.1667V24.6667C19.9997 23.6667 20.333 22.8334 20.833 22.1667C19.333 21.8334 17.833 21.6667 16.6663 21.6667Z" fill="black"/>
</svg>
