<svg width="20" height="20" viewBox="0 0 20 20" fill="none" xmlns="http://www.w3.org/2000/svg">
<path d="M16.2475 6.65764L10 12.7476L3.75253 6.65764C3.64091 6.54862 3.49107 6.48758 3.33503 6.48758C3.179 6.48758 3.02916 6.54862 2.91753 6.65764C2.86349 6.7106 2.82055 6.77381 2.79124 6.84356C2.76192 6.91332 2.74683 6.98823 2.74683 7.06389C2.74683 7.13956 2.76192 7.21447 2.79124 7.28422C2.82055 7.35398 2.86349 7.41719 2.91753 7.47014L9.56378 13.9501C9.6805 14.0639 9.83704 14.1276 10 14.1276C10.163 14.1276 10.3196 14.0639 10.4363 13.9501L17.0825 7.47139C17.137 7.4184 17.1802 7.35504 17.2098 7.28505C17.2393 7.21506 17.2545 7.13986 17.2545 7.06389C17.2545 6.98793 17.2393 6.91273 17.2098 6.84274C17.1802 6.77275 17.137 6.70939 17.0825 6.65639C16.9709 6.54737 16.8211 6.48633 16.665 6.48633C16.509 6.48633 16.3592 6.54737 16.2475 6.65639V6.65764Z" fill="black"/>
</svg>
